<svg xmlns="http://www.w3.org/2000/svg" fill="none" class="icon icon-custom-cart" viewBox="0 0 18 18">
	<path fill="currentColor" d="M6.188 15.75a1.125 1.125 0 1 0 0-2.25 1.125 1.125 0 0 0 0 2.25ZM14.063 15.75a1.125 1.125 0 1 0 0-2.25 1.125 1.125 0 0 0 0 2.25ZM16.06 4.246a.841.841 0 0 0-.653-.309h-10.7l-.215-1.222a.562.562 0 0 0-.554-.465h-2.25a.563.563 0 1 0 0 1.125h1.778l1.605 9.098a.563.563 0 0 0 .554.464h9a.562.562 0 1 0 0-1.124H6.097l-.198-1.126h8.495a.846.846 0 0 0 .829-.678l1.012-5.062a.844.844 0 0 0-.176-.7Z" />
</svg>
