<svg xmlns="http://www.w3.org/2000/svg" fill="none" class="icon icon-cart" viewBox="0 0 20 22">
  <path fill="currentColor" fill-rule="evenodd" d="M9.959 1.53a2.296 2.296 0 0 0-2.296 2.297v.265c.568-.01 1.192-.01 1.877-.01h.838c.684 0 1.308 0 1.878.01v-.265A2.295 2.295 0 0 0 9.959 1.53Zm3.827 2.632v-.335a3.827 3.827 0 0 0-7.654 0v.335a9.985 9.985 0 0 0-.423.043c-1.03.128-1.88.395-2.602.994-.721.6-1.14 1.385-1.456 2.375-.306.96-.537 2.191-.827 3.741l-.021.112c-.41 2.187-.733 3.91-.793 5.27-.061 1.392.147 2.545.933 3.491.786.947 1.88 1.364 3.26 1.56 1.347.192 3.1.192 5.325.192h.862c2.225 0 3.978 0 5.324-.191 1.38-.197 2.476-.614 3.262-1.56.786-.947.992-2.1.931-3.493-.059-1.358-.382-3.082-.793-5.269l-.02-.112c-.29-1.55-.522-2.783-.827-3.74-.316-.99-.734-1.777-1.457-2.376-.721-.599-1.571-.867-2.602-.994-.14-.017-.281-.031-.422-.043ZM5.897 5.725c-.872.107-1.4.31-1.812.653-.411.34-.708.822-.976 1.66-.272.858-.488 1.998-.79 3.61-.424 2.262-.725 3.878-.78 5.116-.052 1.214.144 1.918.581 2.448.44.527 1.095.849 2.3 1.02 1.224.176 2.87.178 5.171.178h.735c2.303 0 3.946-.002 5.172-.177 1.204-.172 1.86-.494 2.299-1.021.439-.529.634-1.233.582-2.45-.055-1.235-.356-2.852-.781-5.114-.302-1.612-.516-2.751-.79-3.61-.267-.838-.563-1.32-.975-1.66-.413-.343-.94-.546-1.813-.654-.894-.11-2.054-.111-3.694-.111h-.735c-1.64 0-2.8 0-3.694.112Z" clip-rule="evenodd"/>
  <path stroke="currentColor" stroke-width="1.649" d="M14.04 13.011a4.082 4.082 0 1 1-8.163 0"/>
</svg>
