<svg xmlns="http://www.w3.org/2000/svg" fill="none" viewBox="0 0 40 40">
	<g opacity=".8">
		<circle cx="20" cy="20" r="20" fill="#fff" fill-opacity=".1" />
		<circle cx="20" cy="20" r="19.298" stroke="#fff" stroke-opacity=".8" stroke-width="1.404" />
		<path fill="#fff" d="M12.203 26.036V13.963c0-1.637 1.3-2.963 2.905-2.963 1.604 0 2.906 1.326 2.906 2.963v12.073c0 1.636-1.302 2.963-2.906 2.963s-2.905-1.327-2.905-2.963ZM25.298 29c-1.604 0-2.905-1.327-2.905-2.963V13.964c0-1.637 1.3-2.963 2.905-2.963 1.604 0 2.905 1.326 2.905 2.963v12.072c0 1.636-1.301 2.964-2.905 2.964Z" />
	</g>
</svg>
